<svg width="65" height="65" viewBox="0 0 65 65" fill="none" xmlns="http://www.w3.org/2000/svg">
<circle cx="32.5" cy="32.5" r="31.5" fill="white" stroke="#DDDDDD" stroke-width="2"/>
<path d="M39.9937 21.0811H24.8965C23.7986 21.0811 22.8378 22.0418 22.8378 23.1398V40.9818C22.8378 42.0798 23.7986 43.0405 24.8965 43.0405H39.9937C41.0916 43.0405 42.0524 42.0798 42.0524 40.9818V23.1398C42.0524 22.0418 41.0916 21.0811 39.9937 21.0811ZM28.3277 39.7466C28.3277 40.0211 28.0532 40.2956 27.7787 40.2956H26.1317C25.8573 40.2956 25.5828 40.0211 25.5828 39.7466V38.0996C25.5828 37.8251 25.8573 37.5506 26.1317 37.5506H27.7787C28.0532 37.5506 28.3277 37.8251 28.3277 38.0996V39.7466ZM28.3277 34.2567C28.3277 34.5312 28.0532 34.8057 27.7787 34.8057H26.1317C25.8573 34.8057 25.5828 34.5312 25.5828 34.2567V32.6098C25.5828 32.3353 25.8573 32.0608 26.1317 32.0608H27.7787C28.0532 32.0608 28.3277 32.3353 28.3277 32.6098V34.2567ZM33.8176 39.7466C33.8176 40.0211 33.5431 40.2956 33.2686 40.2956H31.6216C31.3471 40.2956 31.0726 40.0211 31.0726 39.7466V38.0996C31.0726 37.8251 31.3471 37.5506 31.6216 37.5506H33.2686C33.5431 37.5506 33.8176 37.8251 33.8176 38.0996V39.7466ZM33.8176 34.2567C33.8176 34.5312 33.5431 34.8057 33.2686 34.8057H31.6216C31.3471 34.8057 31.0726 34.5312 31.0726 34.2567V32.6098C31.0726 32.3353 31.3471 32.0608 31.6216 32.0608H33.2686C33.5431 32.0608 33.8176 32.3353 33.8176 32.6098V34.2567ZM39.3074 39.7466C39.3074 40.0211 39.0329 40.2956 38.7584 40.2956H37.1115C36.837 40.2956 36.5625 40.0211 36.5625 39.7466V32.6098C36.5625 32.3353 36.837 32.0608 37.1115 32.0608H38.7584C39.0329 32.0608 39.3074 32.3353 39.3074 32.6098V39.7466ZM39.3074 28.7669C39.3074 29.0414 39.0329 29.3159 38.7584 29.3159H26.1317C25.8573 29.3159 25.5828 29.0414 25.5828 28.7669V24.375C25.5828 24.1005 25.8573 23.826 26.1317 23.826H38.7584C39.0329 23.826 39.3074 24.1005 39.3074 24.375V28.7669Z" fill="#4338CA"/>
</svg>
