<svg width="19" height="21" viewBox="0 0 19 21" fill="none" xmlns="http://www.w3.org/2000/svg">
<path d="M15.75 15.7083H3.25V13.625H15.75V15.7083ZM15.75 11.5417H3.25V9.45834H15.75V11.5417ZM15.75 7.37501H3.25V5.29168H15.75V7.37501ZM0.125 20.9167L1.6875 19.3542L3.25 20.9167L4.8125 19.3542L6.375 20.9167L7.9375 19.3542L9.5 20.9167L11.0625 19.3542L12.625 20.9167L14.1875 19.3542L15.75 20.9167L17.3125 19.3542L18.875 20.9167V0.0833435L17.3125 1.64584L15.75 0.0833435L14.1875 1.64584L12.625 0.0833435L11.0625 1.64584L9.5 0.0833435L7.9375 1.64584L6.375 0.0833435L4.8125 1.64584L3.25 0.0833435L1.6875 1.64584L0.125 0.0833435V20.9167Z" fill="#4338CA"/>
</svg>
