<svg width="23" height="23" viewBox="0 0 23 23" fill="none" xmlns="http://www.w3.org/2000/svg">
<path d="M19.5325 12.5575C19.5775 12.22 19.6 11.8713 19.6 11.5C19.6 11.14 19.5775 10.78 19.5213 10.4425L21.805 8.66501C22.0075 8.50751 22.0638 8.20376 21.94 7.97876L19.78 4.24376C19.645 3.99626 19.3638 3.91751 19.1163 3.99626L16.4275 5.07626C15.865 4.64876 15.2688 4.28876 14.605 4.01876L14.2 1.16126C14.155 0.891262 13.93 0.700012 13.66 0.700012H9.34C9.07 0.700012 8.85625 0.891262 8.81125 1.16126L8.40625 4.01876C7.7425 4.28876 7.135 4.66001 6.58375 5.07626L3.895 3.99626C3.6475 3.90626 3.36625 3.99626 3.23125 4.24376L1.0825 7.97876C0.947501 8.21501 0.992501 8.50751 1.2175 8.66501L3.50125 10.4425C3.445 10.78 3.4 11.1513 3.4 11.5C3.4 11.8488 3.4225 12.22 3.47875 12.5575L1.195 14.335C0.992501 14.4925 0.936251 14.7963 1.06 15.0213L3.22 18.7563C3.355 19.0038 3.63625 19.0825 3.88375 19.0038L6.5725 17.9238C7.135 18.3513 7.73125 18.7113 8.395 18.9813L8.8 21.8388C8.85625 22.1088 9.07 22.3 9.34 22.3H13.66C13.93 22.3 14.155 22.1088 14.1888 21.8388L14.5938 18.9813C15.2575 18.7113 15.865 18.3513 16.4163 17.9238L19.105 19.0038C19.3525 19.0938 19.6338 19.0038 19.7688 18.7563L21.9288 15.0213C22.0638 14.7738 22.0075 14.4925 21.7938 14.335L19.5325 12.5575ZM11.5 15.55C9.2725 15.55 7.45 13.7275 7.45 11.5C7.45 9.27251 9.2725 7.45001 11.5 7.45001C13.7275 7.45001 15.55 9.27251 15.55 11.5C15.55 13.7275 13.7275 15.55 11.5 15.55Z" fill="#4338CA"/>
</svg>
